<svg id="OBJECTS" xmlns="http://www.w3.org/2000/svg" xmlns:xlink="http://www.w3.org/1999/xlink" viewBox="0 0 217.72 381.04"><defs><style>.cls-1{font-size:13.74px;font-family:Montserrat-Bold, Montserrat;font-weight:700;}.cls-1,.cls-10,.cls-12,.cls-13{fill:#00395e;}.cls-2{letter-spacing:-0.01em;}.cls-3{letter-spacing:-0.04em;}.cls-4{letter-spacing:-0.04em;}.cls-5{letter-spacing:-0.01em;}.cls-6{letter-spacing:0em;}.cls-7{letter-spacing:-0.04em;}.cls-8{letter-spacing:-0.01em;}.cls-9{fill:url(#linear-gradient);}.cls-11{font-size:37.02px;fill:#1a4c4e;font-family:Montserrat-ExtraBoldItalic, Montserrat;font-weight:800;font-style:italic;}.cls-12,.cls-13{font-family:Montserrat-SemiBoldItalic, Montserrat;font-weight:600;}.cls-13{letter-spacing:-0.04em;}</style><linearGradient id="linear-gradient" x1="250" y1="359.05" x2="250" y2="73.65" gradientUnits="userSpaceOnUse"><stop offset="0" stop-color="#59acf9"/><stop offset="0.99" stop-color="#c9edff"/></linearGradient></defs><text class="cls-1" transform="translate(5.85 377.38)">THE SMA<tspan class="cls-2" x="65.11" y="0">R</tspan><tspan x="75.07" y="0">T </tspan><tspan class="cls-3" x="87.45" y="0">W</tspan><tspan class="cls-4" x="102.91" y="0">A</tspan><tspan x="112.84" y="0">Y </tspan><tspan class="cls-5" x="126.02" y="0">T</tspan><tspan class="cls-6" x="134.38" y="0">O TR</tspan><tspan class="cls-7" x="168.45" y="0">A</tspan><tspan class="cls-8" x="178.45" y="0">V</tspan><tspan x="188.5" y="0">EL</tspan></text><path class="cls-9" d="M358.86,167.21A108.86,108.86,0,0,0,246.08,59.1c-55.89,2-101.83,47-104.78,102.86a108.48,108.48,0,0,0,26.28,77h0l63.33,92a24.3,24.3,0,0,0,40.19-.24l62.19-92.76h0A108.43,108.43,0,0,0,358.86,167.21Z" transform="translate(-141.14 -59.03)"/><path class="cls-10" d="M348.24,228.39l1.08-2.77a3.91,3.91,0,0,0-3-5.27l-2.93-.49a12.58,12.58,0,0,0-7.84,1.21l-15.88,8.15a201.28,201.28,0,0,0-50,36.38h0a1.57,1.57,0,0,0,1.49,2.63h0A201.27,201.27,0,0,0,328,243.94l15.15-9.45A12.58,12.58,0,0,0,348.24,228.39Z" transform="translate(-141.14 -59.03)"/><path class="cls-10" d="M326.43,229.84,279.77,215a3.55,3.55,0,0,0-3.64,5.84l23.29,24.3Z" transform="translate(-141.14 -59.03)"/><path class="cls-10" d="M331,237.83l-11.23,47.65a3.55,3.55,0,0,1-6.88.12L304,253.15Z" transform="translate(-141.14 -59.03)"/><path class="cls-10" d="M281,259l-17-5.4a1.29,1.29,0,0,0-1.32,2.13l8.47,8.84Z" transform="translate(-141.14 -59.03)"/><path class="cls-10" d="M282.69,261.85l-4.08,17.35a1.3,1.3,0,0,1-2.51,0l-3.24-11.81Z" transform="translate(-141.14 -59.03)"/><path class="cls-10" d="M263,270.8s-71.44,39-90.05,29.65,16.77-28.8,16.77-28.8S136.19,294,157.34,314C181.18,336.5,263,270.8,263,270.8Z" transform="translate(-141.14 -59.03)"/><text class="cls-11" transform="translate(25.83 345.28)">TIC<tspan class="cls-12" x="63.37" y="0">TR</tspan><tspan class="cls-13" x="112.71" y="0">A</tspan><tspan class="cls-12" x="139.07" y="0">V</tspan></text></svg>